<?xml version="1.0" encoding="UTF-8"?>
<svg width="480px" height="106px" viewBox="0 0 480 106" version="1.1" xmlns="http://www.w3.org/2000/svg" xmlns:xlink="http://www.w3.org/1999/xlink">
    <!-- Generator: Sketch 64 (93537) - https://sketch.com -->
    <title>logo</title>
    <desc>Created with Sketch.</desc>
    <g id="logo" stroke="none" stroke-width="1" fill="none" fill-rule="evenodd">
        <g id="Group">
            <path d="M13.1949761,75 C15.5186577,75 17.3962754,74.5764463 18.8278292,73.7293388 C20.259383,72.8822314 21.2656201,72.0041322 21.8465405,71.0950413 L21.8465405,71.0950413 L22.1577479,71.0950413 L23.09137,74.3181818 L29.44,74.3181818 L29.44,30 L20.2282623,30 L20.2282623,45.9297521 C19.6058476,45.3512397 18.6825991,44.8657025 17.4585168,44.4731405 C16.2344346,44.0805785 14.9377373,43.8842975 13.5684249,43.8842975 C11.3692263,43.8842975 9.39824635,44.2561983 7.65548516,45 C5.91272397,45.7438017 4.4500494,46.7871901 3.26746146,48.1301653 C2.08487351,49.4731405 1.18237218,51.1053719 0.559957468,53.0268595 C-0.0624572414,54.9483471 -0.373664596,57.0867769 -0.373664596,59.4421488 C-0.373664596,61.838843 -0.0313365059,63.9979339 0.653319675,65.9194215 C1.33797586,67.8409091 2.2819715,69.4731405 3.4853066,70.8161157 C4.68864171,72.1590909 6.12019554,73.1921488 7.7799681,73.9152893 C9.43974066,74.6384298 11.2447433,75 13.1949761,75 Z M15.9310245,69 C14.0490142,69 12.5173781,68.2578397 11.3361163,66.7735192 C10.1548545,65.2891986 9.5642236,62.9790941 9.5642236,59.8432056 C9.5642236,58.2125436 9.74441608,56.8432056 10.104801,55.7351916 C10.465186,54.6271777 10.95571,53.71777 11.5763729,53.0069686 C12.1970359,52.2961672 12.9077951,51.7839721 13.7086506,51.4703833 C14.5095061,51.1567944 15.3704257,51 16.2914095,51 C17.2123932,51 18.0532915,51.2299652 18.8141042,51.6898955 C19.5749168,52.1498258 20.1355157,52.630662 20.4959006,53.1324042 L20.4959006,53.1324042 L20.4959006,66.0522648 C20.1755584,66.7630662 19.6249703,67.4320557 18.8441362,68.0592334 C18.0633022,68.6864111 17.0922649,69 15.9310245,69 Z M42.3592547,39 C43.9730998,39 45.2047184,38.5684932 46.0541105,37.7054795 C46.9035027,36.8424658 47.3281988,35.7739726 47.3281988,34.5 C47.3281988,33.2260274 46.8928853,32.1575342 46.0222583,31.2945205 C45.1516314,30.4315068 43.9306301,30 42.3592547,30 C40.7878792,30 39.566878,30.4417808 38.696251,31.3253425 C37.825624,32.2089041 37.3903106,33.2671233 37.3903106,34.5 C37.3903106,35.7328767 37.8150066,36.7910959 38.6643988,37.6746575 C39.5137909,38.5582192 40.7454096,39 42.3592547,39 Z M34.2548683,91 C36.5968203,90.0054054 38.5381752,88.8346847 40.078933,87.4878378 C41.6196909,86.140991 42.8522972,84.6076577 43.7767519,82.8878378 C44.7012066,81.168018 45.3585966,79.2927928 45.748922,77.2621622 C46.1392473,75.2315315 46.3344099,73.0558559 46.3344099,70.7351351 L46.3344099,70.7351351 L46.3344099,45 L37.2131234,45 L37.2131234,71.1081081 C37.2131234,73.3459459 37.0795911,75.2108108 36.8125264,76.7027027 C36.5454617,78.1945946 36.1345929,79.4481982 35.5799201,80.4635135 C35.0252472,81.4788288 34.3164986,82.318018 33.4536742,82.9810811 C32.5908498,83.6441441 31.5842214,84.2657658 30.4337888,84.8459459 L30.4337888,84.8459459 L34.2548683,91 Z M62.4213665,75 C64.4089441,75 66.1377226,74.6603586 67.6077019,73.9810757 C69.0776812,73.3017928 70.2267495,72.4269588 71.0549068,71.3565737 L71.0549068,71.3565737 L71.303354,71.3565737 L72.1108075,74.3207171 L79.129441,74.3207171 L79.129441,55.1155378 C79.129441,51.2456839 78.0114286,48.4256308 75.7754037,46.6553785 C73.5393789,44.8851262 70.5787164,44 66.8934161,44 C64.6573913,44 62.4731263,44.2984728 60.3406211,44.8954183 C58.2081159,45.4923639 56.2930021,46.2848606 54.5952795,47.2729084 L54.5952795,47.2729084 L57.7008696,53.2629482 C59.1501449,52.439575 60.4751967,51.8426295 61.6760248,51.4721116 C62.876853,51.1015936 64.0983851,50.9163347 65.3406211,50.9163347 C66.7898965,50.9163347 67.9079089,51.2148074 68.6946584,51.811753 C69.4814079,52.4086985 69.8747826,53.2629482 69.8747826,54.374502 L69.8747826,54.374502 L69.8747826,55.9800797 L66.7691925,55.9800797 C64.7816149,55.9800797 62.9079089,56.1653386 61.1480745,56.5358566 C59.3882402,56.9063745 57.8561491,57.4827357 56.5518012,58.2649402 C55.2474534,59.0471448 54.2122567,60.0557769 53.4462112,61.2908367 C52.6801656,62.5258964 52.2971429,64.0079681 52.2971429,65.7370518 C52.2971429,67.0132802 52.5145342,68.2174635 52.9493168,69.3496016 C53.3840994,70.4817397 54.0155694,71.4594954 54.8437267,72.2828685 C55.6718841,73.1062417 56.7174327,73.7649402 57.9803727,74.2589641 C59.2433126,74.752988 60.7236439,75 62.4213665,75 Z M65.9090382,69 C64.9453642,69 64.0921112,68.7625369 63.3492791,68.2876106 C62.6064471,67.8126844 62.2350311,66.9351032 62.2350311,65.6548673 C62.2350311,65.20059 62.3354138,64.7566372 62.5361792,64.3230088 C62.7369446,63.8893805 63.0682075,63.5176991 63.529968,63.2079646 C63.9917285,62.8982301 64.604063,62.640118 65.3669716,62.4336283 C66.1298802,62.2271386 67.0734776,62.1032448 68.197764,62.0619469 L68.197764,62.0619469 L70.1853416,62 L70.1853416,66.2123894 C69.8641169,66.9144543 69.312012,67.5545723 68.5290269,68.1327434 C67.7460418,68.7109145 66.8727122,69 65.9090382,69 Z M95.3989357,75 L95.3989357,54.2912424 C96.2379423,53.32315 97.2132874,52.5444671 98.3249711,51.9551935 C99.4366548,51.3659199 100.495901,51.0712831 101.502709,51.0712831 C102.845119,51.0712831 103.862414,51.5027155 104.554595,52.3655804 C105.246775,53.2284453 105.592866,54.3964698 105.592866,55.8696538 L105.592866,55.8696538 L105.592866,75 L114.905839,75 L114.905839,54.9226069 C114.905839,51.3448744 114.003906,48.6300068 112.200042,46.7780041 C110.396178,44.9260014 107.795258,44 104.397281,44 C102.425616,44 100.600776,44.3998642 98.9227633,45.1995927 C97.2447502,45.9993211 95.7345383,47.0936864 94.3921278,48.4826884 L94.3921278,48.4826884 L93.3223944,44.694501 L86.0859627,44.694501 L86.0859627,75 L95.3989357,75 Z M134.895408,90 C137.398845,90 139.683232,89.7168263 141.748568,89.1504788 C143.813904,88.5841313 145.56631,87.7975376 147.005786,86.7906977 C148.445263,85.7838577 149.561379,84.5882353 150.354134,83.2038304 C151.146889,81.8194254 151.543267,80.3091655 151.543267,78.6730506 C151.543267,76.994984 151.272061,75.5581395 150.72965,74.3625171 C150.187238,73.1668947 149.425776,72.1915185 148.445263,71.4363885 C147.46475,70.6812585 146.286048,70.1358869 144.909157,69.8002736 C143.532267,69.4646603 142.030204,69.2968536 140.40297,69.2968536 L140.40297,69.2968536 L134.08179,69.2968536 C132.871796,69.2968536 132.068609,69.129047 131.672232,68.7934337 C131.275854,68.4578203 131.077665,68.0173279 131.077665,67.4719562 C131.077665,67.0104879 131.202837,66.6329229 131.453181,66.3392613 C131.703525,66.0455996 131.97473,65.8148655 132.266798,65.6470588 C132.684038,65.7309622 133.101277,65.7938896 133.518517,65.8358413 C133.935756,65.877793 134.373858,65.8987688 134.832822,65.8987688 C136.877296,65.8987688 138.71315,65.6365709 140.340384,65.1121751 C141.967618,64.5877793 143.344509,63.8431373 144.471056,62.878249 C145.597603,61.9133607 146.452944,60.7806658 147.037079,59.4801642 C147.621215,58.1796626 147.913282,56.7323301 147.913282,55.1381669 C147.913282,54.1732786 147.756818,53.2083903 147.443888,52.2435021 C147.130958,51.2786138 146.745012,50.4815321 146.286048,49.8522572 L146.286048,49.8522572 L149.790861,50.4186047 L152.669814,50.4186047 L152.669814,44.6922025 L139.902282,44.6922025 C139.151251,44.4824441 138.316772,44.3146375 137.398845,44.1887825 C136.480918,44.0629275 135.667301,44 134.957993,44 C133.038691,44 131.275854,44.2621979 129.669482,44.7865937 C128.063109,45.3109895 126.665357,46.0661195 125.476224,47.0519836 C124.287091,48.0378477 123.358733,49.2124943 122.69115,50.5759234 C122.023566,51.9393525 121.689775,53.4391245 121.689775,55.0752394 C121.689775,56.2079343 121.856671,57.2252622 122.190462,58.127223 C122.524254,59.0291838 122.951925,59.8367533 123.473474,60.5499316 C123.995023,61.2631099 124.558297,61.8818969 125.163294,62.4062927 C125.768292,62.9306886 126.341996,63.3397173 126.884408,63.6333789 C125.590965,64.2626539 124.516573,65.0911993 123.661232,66.119015 C122.805891,67.1468308 122.37822,68.373917 122.37822,69.8002736 C122.37822,71.0168719 122.69115,72.0341997 123.317009,72.8522572 C123.942869,73.6703146 124.506142,74.24715 125.006829,74.5827633 C123.379595,75.1700866 122.117445,75.9776562 121.22038,77.005472 C120.323315,78.0332877 119.874783,79.2184223 119.874783,80.5608755 C119.874783,83.5813953 121.209949,85.9097127 123.880283,87.5458276 C126.550616,89.1819425 130.222324,90 134.895408,90 Z M134.781615,59 C133.640032,59 132.69211,58.6145833 131.93785,57.84375 C131.18359,57.0729167 130.80646,55.9583333 130.80646,54.5 C130.80646,53.0416667 131.173397,51.9270833 131.907272,51.15625 C132.641147,50.3854167 133.599261,50 134.781615,50 C135.923198,50 136.87112,50.3854167 137.62538,51.15625 C138.37964,51.9270833 138.75677,53.0416667 138.75677,54.5 C138.75677,55.9583333 138.389833,57.0729167 137.655958,57.84375 C136.922083,58.6145833 135.963969,59 134.781615,59 Z M134.596928,83 C132.011319,83 130.236277,82.6146789 129.271803,81.8440367 C128.30733,81.0733945 127.825093,80.1529052 127.825093,79.0825688 C127.825093,78.3119266 128.00978,77.6697248 128.379152,77.1559633 C128.748525,76.6422018 129.17946,76.2568807 129.671957,76 L129.671957,76 L137.428787,76 C138.988361,76 140.09648,76.2247706 140.753142,76.6743119 C141.409805,77.1238532 141.738137,77.8409786 141.738137,78.8256881 C141.738137,79.9388379 141.153296,80.912844 139.983616,81.7477064 C138.813935,82.5825688 137.018373,83 134.596928,83 Z M170.931677,75 C173.108737,75 175.142029,74.6397742 177.031553,73.9193227 C178.921077,73.1988712 180.564141,72.1593625 181.960745,70.8007968 C183.35735,69.4422311 184.456149,67.7954847 185.257143,65.8605578 C186.058137,63.9256308 186.458634,61.7436919 186.458634,59.314741 C186.458634,56.8034529 186.068406,54.6009296 185.28795,52.7071713 C184.507495,50.813413 183.439503,49.2181275 182.083975,47.9213147 C180.728447,46.624502 179.11619,45.6467463 177.247205,44.9880478 C175.378219,44.3293493 173.355197,44 171.178137,44 C169.001077,44 166.967785,44.3602258 165.078261,45.0806773 C163.188737,45.8011288 161.545673,46.8406375 160.149068,48.1992032 C158.752464,49.5577689 157.653665,51.2250996 156.852671,53.2011952 C156.051677,55.1772908 155.65118,57.4209827 155.65118,59.9322709 C155.65118,62.3200531 156.041408,64.4505312 156.821863,66.3237052 C157.602319,68.1968792 158.670311,69.7715803 160.025839,71.0478088 C161.381366,72.3240372 162.993623,73.3017928 164.862609,73.9810757 C166.731594,74.6603586 168.754617,75 170.931677,75 Z M171.612645,69 C170.030696,69 168.631279,68.2867133 167.414395,66.8601399 C166.19751,65.4335664 165.589068,63.1888112 165.589068,60.1258741 C165.589068,58.3636364 165.75132,56.9055944 166.075822,55.7517483 C166.400325,54.5979021 166.836375,53.6643357 167.383973,52.951049 C167.931571,52.2377622 168.560294,51.7342657 169.270143,51.4405594 C169.979992,51.1468531 170.720264,51 171.490957,51 C172.26165,51 173.012062,51.1678322 173.742193,51.5034965 C174.472323,51.8391608 175.121328,52.3741259 175.689208,53.1083916 C176.257087,53.8426573 176.703278,54.7867133 177.02778,55.9405594 C177.352283,57.0944056 177.514534,58.4895105 177.514534,60.1258741 C177.514534,61.7622378 177.352283,63.1468531 177.02778,64.2797203 C176.703278,65.4125874 176.267228,66.3251748 175.71963,67.0174825 C175.172032,67.7097902 174.543308,68.2132867 173.833459,68.527972 C173.12361,68.8426573 172.383339,69 171.612645,69 Z" id="django" fill="#000000" fill-rule="nonzero"></path>
            <rect id="Rectangle" stroke="#000000" stroke-width="8" x="205.365466" y="4" width="270.26087" height="98" rx="18"></rect>
            <path d="M233.081285,75.28 L233.081285,53.9443357 C233.829853,53.1890909 234.723977,52.5806993 235.763655,52.1191608 C236.803333,51.6576224 237.822217,51.4268531 238.820308,51.4268531 C240.275857,51.4268531 241.409107,51.8464336 242.220055,52.6855944 C243.031004,53.5247552 243.436479,54.9513287 243.436479,56.9653147 L243.436479,56.9653147 L243.436479,75.28 L252.66882,75.28 L252.66882,55.4548252 C252.66882,53.8184615 252.450487,52.328951 252.013823,50.9862937 C251.577158,49.6436364 250.922161,48.4793007 250.048831,47.4932867 C249.175502,46.5072727 248.073443,45.7415385 246.742655,45.1960839 C245.411867,44.6506294 243.831556,44.3779021 242.001723,44.3779021 C240.255064,44.3779021 238.612373,44.6716084 237.073649,45.259021 C235.534925,45.8464336 234.204138,46.5806993 233.081285,47.4618182 L233.081285,47.4618182 L233.081285,30.28 L223.848944,30.28 L223.848944,75.28 L233.081285,75.28 Z M275.396056,76.28 C277.907592,76.28 280.031933,76.0675166 281.769078,75.6425498 C283.506224,75.217583 284.939893,74.7288712 286.070084,74.1764143 L286.070084,74.1764143 L284.374797,67.6744223 C283.495759,68.1418858 282.407427,68.5456042 281.1098,68.8855777 C279.812173,69.2255511 278.305252,69.3955378 276.589035,69.3955378 C274.119358,69.3955378 272.06827,68.906826 270.435772,67.9294024 C268.803274,66.9519788 267.987024,65.4008499 267.987024,63.2760159 L267.987024,63.2760159 L267.987024,63.0210359 L287.451429,63.0210359 L287.451429,59.0050996 C287.451429,54.2879681 286.21659,50.654502 283.746913,48.1047012 C281.277236,45.5549004 277.97038,44.28 273.826346,44.28 C271.565963,44.28 269.504411,44.6730943 267.641688,45.4592829 C265.778966,46.2454714 264.177861,47.3610093 262.838376,48.8058964 C261.49889,50.2507835 260.462881,51.9825232 259.73035,54.0011155 C258.997818,56.0197078 258.631553,58.2401594 258.631553,60.6624701 C258.631553,63.3822576 259.081536,65.719575 259.981503,67.6744223 C260.88147,69.6292696 262.09538,71.2441434 263.623231,72.5190438 C265.151082,73.7939442 266.930086,74.7394954 268.960245,75.3556972 C270.990403,75.9718991 273.135673,76.28 275.396056,76.28 Z M267.575652,56.28 C267.745531,54.4338462 268.31887,52.9723077 269.295671,51.8953846 C270.272472,50.8184615 271.504091,50.28 272.990527,50.28 C273.79745,50.28 274.487581,50.4448352 275.060921,50.7745055 C275.63426,51.1041758 276.101426,51.5437363 276.462418,52.0931868 C276.823409,52.6426374 277.088844,53.269011 277.258723,53.9723077 C277.428601,54.6756044 277.51354,55.4008791 277.51354,56.1481319 L277.51354,56.1481319 L267.575652,56.28 Z M300.557019,76.28 C302.544596,76.28 304.273375,75.9294024 305.743354,75.2282072 C307.213333,74.527012 308.362402,73.6239575 309.190559,72.5190438 L309.190559,72.5190438 L309.439006,72.5190438 L310.24646,75.5788048 L317.265093,75.5788048 L317.265093,55.7541036 C317.265093,51.7594157 316.147081,48.8483931 313.911056,47.0210359 C311.675031,45.1936786 308.714369,44.28 305.029068,44.28 C302.793043,44.28 300.608778,44.5881009 298.476273,45.2043028 C296.343768,45.8205046 294.428654,46.6385657 292.730932,47.6584861 L292.730932,47.6584861 L295.836522,53.841753 C297.285797,52.9918194 298.610849,52.3756175 299.811677,51.9931474 C301.012505,51.6106773 302.234037,51.4194422 303.476273,51.4194422 C304.925549,51.4194422 306.043561,51.7275432 306.830311,52.343745 C307.61706,52.9599469 308.010435,53.841753 308.010435,54.9891633 L308.010435,54.9891633 L308.010435,56.6465339 L304.904845,56.6465339 C302.917267,56.6465339 301.043561,56.8377689 299.283727,57.220239 C297.523892,57.6027092 295.991801,58.1976627 294.687453,59.0050996 C293.383106,59.8125365 292.347909,60.8537052 291.581863,62.1286056 C290.815818,63.403506 290.432795,64.9333865 290.432795,66.718247 C290.432795,68.0356441 290.650186,69.278672 291.084969,70.4473307 C291.519752,71.6159894 292.151222,72.6252855 292.979379,73.4752191 C293.807536,74.3251527 294.853085,75.0050996 296.116025,75.5150598 C297.378965,76.0250199 298.859296,76.28 300.557019,76.28 Z M304.04469,69.28 C303.081016,69.28 302.227763,69.0425369 301.484931,68.5676106 C300.742099,68.0926844 300.370683,67.2151032 300.370683,65.9348673 C300.370683,65.48059 300.471066,65.0366372 300.671831,64.6030088 C300.872597,64.1693805 301.20386,63.7976991 301.66562,63.4879646 C302.127381,63.1782301 302.739715,62.920118 303.502624,62.7136283 C304.265532,62.5071386 305.20913,62.3832448 306.333416,62.3419469 L306.333416,62.3419469 L308.320994,62.28 L308.320994,66.4923894 C307.999769,67.1944543 307.447664,67.8345723 306.664679,68.4127434 C305.881694,68.9909145 305.008364,69.28 304.04469,69.28 Z M335.802678,76.28 C338.12636,76.28 340.003977,75.847034 341.435531,74.9811019 C342.867085,74.1151699 343.873322,73.2175574 344.454242,72.2882645 L344.454242,72.2882645 L344.76545,72.2882645 L345.699072,75.5830303 L352.047702,75.5830303 L352.047702,30.28 L342.835964,30.28 L342.835964,46.5637466 C342.213549,45.9723783 341.290301,45.4760514 340.066219,45.0747658 C338.842136,44.6734803 337.545439,44.4728375 336.176127,44.4728375 C333.976928,44.4728375 332.005948,44.8530028 330.263187,45.6133333 C328.520426,46.3736639 327.057751,47.4402388 325.875163,48.8130579 C324.692575,50.185877 323.790074,51.8543802 323.167659,53.8185675 C322.545245,55.7827548 322.234037,57.9687052 322.234037,60.3764187 C322.234037,62.8263728 322.576365,65.0334435 323.261022,66.9976309 C323.945678,68.9618182 324.889673,70.6303214 326.093008,72.0031405 C327.296344,73.3759596 328.727897,74.4319743 330.38767,75.1711846 C332.047443,75.9103949 333.852445,76.28 335.802678,76.28 Z M338.538726,69.28 C336.656716,69.28 335.12508,68.5378397 333.943818,67.0535192 C332.762556,65.5691986 332.171925,63.2590941 332.171925,60.1232056 C332.171925,58.4925436 332.352118,57.1232056 332.712503,56.0151916 C333.072888,54.9071777 333.563412,53.99777 334.184075,53.2869686 C334.804738,52.5761672 335.515497,52.0639721 336.316352,51.7503833 C337.117208,51.4367944 337.978128,51.28 338.899111,51.28 C339.820095,51.28 340.660993,51.5099652 341.421806,51.9698955 C342.182619,52.4298258 342.743218,52.910662 343.103602,53.4124042 L343.103602,53.4124042 L343.103602,66.3322648 C342.78326,67.0430662 342.232672,67.7120557 341.451838,68.3392334 C340.671004,68.9664111 339.699967,69.28 338.538726,69.28 Z M368.942112,75.28 L368.942112,30.28 L359.998012,30.28 L359.998012,75.28 L368.942112,75.28 Z M390.675559,76.28 C393.187095,76.28 395.311436,76.0675166 397.048581,75.6425498 C398.785727,75.217583 400.219396,74.7288712 401.349587,74.1764143 L401.349587,74.1764143 L399.6543,67.6744223 C398.775262,68.1418858 397.68693,68.5456042 396.389303,68.8855777 C395.091676,69.2255511 393.584755,69.3955378 391.868538,69.3955378 C389.398861,69.3955378 387.347774,68.906826 385.715275,67.9294024 C384.082777,66.9519788 383.266528,65.4008499 383.266528,63.2760159 L383.266528,63.2760159 L383.266528,63.0210359 L402.730932,63.0210359 L402.730932,59.0050996 C402.730932,54.2879681 401.496093,50.654502 399.026416,48.1047012 C396.556739,45.5549004 393.249883,44.28 389.105849,44.28 C386.845466,44.28 384.783914,44.6730943 382.921191,45.4592829 C381.058469,46.2454714 379.457365,47.3610093 378.117879,48.8058964 C376.778393,50.2507835 375.742384,51.9825232 375.009853,54.0011155 C374.277322,56.0197078 373.911056,58.2401594 373.911056,60.6624701 C373.911056,63.3822576 374.361039,65.719575 375.261007,67.6744223 C376.160974,69.6292696 377.374883,71.2441434 378.902734,72.5190438 C380.430585,73.7939442 382.209589,74.7394954 384.239748,75.3556972 C386.269906,75.9718991 388.415176,76.28 390.675559,76.28 Z M383.848944,56.28 C384.018823,54.4338462 384.592162,52.9723077 385.568963,51.8953846 C386.545764,50.8184615 387.777383,50.28 389.263819,50.28 C390.070742,50.28 390.760873,50.4448352 391.334212,50.7745055 C391.907552,51.1041758 392.374718,51.5437363 392.73571,52.0931868 C393.096701,52.6426374 393.362136,53.269011 393.532015,53.9723077 C393.701893,54.6756044 393.786832,55.4008791 393.786832,56.1481319 L393.786832,56.1481319 L383.848944,56.28 Z M417.817971,76.28 C419.727812,76.28 421.464955,76.0462683 423.0294,75.5788048 C424.593844,75.1113413 425.934796,74.4313944 427.052257,73.5389641 C428.169717,72.6465339 429.033209,71.5734927 429.642733,70.3198406 C430.252257,69.0661886 430.557019,67.6744223 430.557019,66.1445418 C430.557019,63.8497211 429.927177,61.969243 428.667495,60.5031076 C427.407812,59.0369721 425.558923,57.9214343 423.120828,57.156494 L423.120828,57.156494 L421.292257,56.5827888 C419.42305,56.030332 418.173527,55.5097477 417.543685,55.0210359 C416.913844,54.532324 416.598923,53.9267463 416.598923,53.2043028 C416.598923,52.5243559 416.924003,51.9931474 417.574161,51.6106773 C418.22432,51.2282072 419.077654,51.0369721 420.134161,51.0369721 C421.271939,51.0369721 422.450352,51.1963347 423.6694,51.5150598 C424.888447,51.8337849 426.046542,52.2693758 427.143685,52.8218327 L427.143685,52.8218327 L428.972257,46.3198406 C427.671939,45.6823904 426.219241,45.1830544 424.614161,44.8218327 C423.009082,44.4606109 421.271939,44.28 419.402733,44.28 C417.533527,44.28 415.877654,44.5243559 414.435114,45.0130677 C412.992574,45.5017795 411.773527,46.1817264 410.777971,47.0529084 C409.782415,47.9240903 409.020511,48.9440106 408.492257,50.1126693 C407.964003,51.281328 407.699876,52.5668526 407.699876,53.969243 C407.699876,56.3915538 408.248447,58.3145286 409.34559,59.7381673 C410.442733,61.1618061 412.190035,62.277344 414.587495,63.0847809 L414.587495,63.0847809 L416.477019,63.6584861 C417.533527,63.9984595 418.397019,64.2853121 419.067495,64.5190438 C419.737971,64.7527756 420.256066,64.9971315 420.621781,65.2521116 C420.987495,65.5070916 421.241463,65.7726959 421.383685,66.0489243 C421.525908,66.3251527 421.597019,66.654502 421.597019,67.0369721 C421.597019,67.6744223 421.282098,68.2268792 420.652257,68.6943426 C420.022415,69.1618061 418.935431,69.3955378 417.391304,69.3955378 C416.050352,69.3955378 414.739876,69.1936786 413.459876,68.7899602 C412.179876,68.3862417 410.950669,67.8656574 409.772257,67.2282072 L409.772257,67.2282072 L407.821781,74.0489243 C409.203368,74.7713679 410.696701,75.3238247 412.301781,75.7062948 C413.90686,76.0887649 415.74559,76.28 417.817971,76.28 Z M444.650269,76.28 C446.56011,76.28 448.297253,76.0462683 449.861698,75.5788048 C451.426142,75.1113413 452.767095,74.4313944 453.884555,73.5389641 C455.002015,72.6465339 455.865507,71.5734927 456.475031,70.3198406 C457.084555,69.0661886 457.389317,67.6744223 457.389317,66.1445418 C457.389317,63.8497211 456.759476,61.969243 455.499793,60.5031076 C454.24011,59.0369721 452.391222,57.9214343 449.953126,57.156494 L449.953126,57.156494 L448.124555,56.5827888 C446.255349,56.030332 445.005825,55.5097477 444.375983,55.0210359 C443.746142,54.532324 443.431222,53.9267463 443.431222,53.2043028 C443.431222,52.5243559 443.756301,51.9931474 444.40646,51.6106773 C445.056618,51.2282072 445.909952,51.0369721 446.96646,51.0369721 C448.104237,51.0369721 449.28265,51.1963347 450.501698,51.5150598 C451.720745,51.8337849 452.878841,52.2693758 453.975983,52.8218327 L453.975983,52.8218327 L455.804555,46.3198406 C454.504237,45.6823904 453.051539,45.1830544 451.44646,44.8218327 C449.84138,44.4606109 448.104237,44.28 446.235031,44.28 C444.365825,44.28 442.709952,44.5243559 441.267412,45.0130677 C439.824872,45.5017795 438.605825,46.1817264 437.610269,47.0529084 C436.614714,47.9240903 435.852809,48.9440106 435.324555,50.1126693 C434.796301,51.281328 434.532174,52.5668526 434.532174,53.969243 C434.532174,56.3915538 435.080745,58.3145286 436.177888,59.7381673 C437.275031,61.1618061 439.022333,62.277344 441.419793,63.0847809 L441.419793,63.0847809 L443.309317,63.6584861 C444.365825,63.9984595 445.229317,64.2853121 445.899793,64.5190438 C446.570269,64.7527756 447.088364,64.9971315 447.454079,65.2521116 C447.819793,65.5070916 448.073761,65.7726959 448.215983,66.0489243 C448.358206,66.3251527 448.429317,66.654502 448.429317,67.0369721 C448.429317,67.6744223 448.114396,68.2268792 447.484555,68.6943426 C446.854714,69.1618061 445.767729,69.3955378 444.223602,69.3955378 C442.88265,69.3955378 441.572174,69.1936786 440.292174,68.7899602 C439.012174,68.3862417 437.782968,67.8656574 436.604555,67.2282072 L436.604555,67.2282072 L434.654079,74.0489243 C436.035666,74.7713679 437.528999,75.3238247 439.134079,75.7062948 C440.739158,76.0887649 442.577888,76.28 444.650269,76.28 Z" id="headless" fill="#000000" fill-rule="nonzero"></path>
        </g>
    </g>
</svg>